ply
format ascii 1.0
comment VCGLIB generated
element vertex 507
property float x
property float y
property float z
property float nx
property float ny
property float nz
element face 968
property list uchar int vertex_indices
end_header
-0.757812 0.242188 -0.46875 -1.334304 -0.1426786 -5.282329 
-0.765625 0.164062 -0.4375 -0.9969077 -3.383681 -3.756977 
-0.6875 0.09375 -0.5 -3.49185 -2.928841 -3.486869 
-0.671875 0.242188 -0.5625 -3.488511 -0.01780301 -4.682678 
-0.6875 0.09375 0.5 -3.49185 -2.928841 3.486869 
-0.765625 0.164062 0.4375 -0.9969077 -3.383681 3.756977 
-0.757812 0.242188 0.46875 -1.334304 -0.1426786 5.282329 
-0.671875 0.242188 0.5625 -3.488511 -0.01780301 4.682678 
-0.578125 0.054688 -0.546875 -1.235215 -1.380347 -1.718718 
-0.5625 0.242188 -0.625 -1.248153 -0.009107828 -2.17697 
-0.578125 0.054688 0.546875 -1.235215 -1.380346 1.718718 
-0.5625 0.242188 0.625 -1.248153 -0.009107828 2.17697 
-0.71875 0.03125 -0.351562 -3.591524 -4.138083 -0.5479062 
-0.617188 -0.023438 -0.351562 -1.26263 -2.30938 -0.3163399 
-0.617188 -0.023438 0.351562 -1.26263 -2.30938 0.3163399 
-0.71875 0.03125 0.351562 -3.591524 -4.138083 0.5479062 
-0.78125 0.132812 -0.351562 -1.240344 -4.741711 -0.154034 
-0.78125 0.132812 0.351562 -1.240344 -4.741711 0.1540339 
-0.796875 0.164062 -0.273438 -1.642027 -3.521178 3.328291 
-0.742188 0.09375 -0.203125 -3.909372 -2.953686 2.482538 
-0.742188 0.09375 0.203125 -3.909372 -2.953686 -2.482538 
-0.796875 0.164062 0.273438 -1.642027 -3.521178 -3.328291 
-0.648438 0.054688 -0.15625 -1.410545 -1.678983 1.45498 
-0.648438 0.054688 0.15625 -1.410545 -1.678983 -1.45498 
-0.742188 0.242188 -0.140625 -4.108027 0.01126426 3.899614 
-0.65625 0.242188 -0.078125 -1.518907 -0.002444565 2.112669 
-0.65625 0.242188 0.078125 -1.518907 -0.002444595 -2.112669 
-0.742188 0.242188 0.140625 -4.108027 0.01126423 -3.899614 
-0.796875 0.242188 -0.242188 -1.431488 -0.1135839 4.592068 
-0.796875 0.242188 0.242188 -1.431487 -0.1135839 -4.592068 
-0.796875 0.328125 -0.273438 -1.61241 3.563187 3.370114 
-0.742188 0.390625 -0.203125 -3.980785 2.921246 2.560308 
-0.742188 0.390625 0.203125 -3.980785 2.921246 -2.560308 
-0.796875 0.328125 0.273438 -1.61241 3.563187 -3.370114 
-0.648438 0.4375 -0.15625 -1.495348 1.620527 1.360424 
-0.648438 0.4375 0.15625 -1.495348 1.620527 -1.360424 
-0.71875 0.453125 -0.351562 -3.73846 4.154717 -0.5666384 
-0.617188 0.515625 -0.351562 -1.376903 2.215024 -0.3055596 
-0.617188 0.515625 0.351562 -1.376903 2.215024 0.3055596 
-0.71875 0.453125 0.351562 -3.73846 4.154717 0.5666384 
-0.78125 0.359375 -0.351562 -1.163516 4.834601 -0.2157143 
-0.78125 0.359375 0.351562 -1.163516 4.834601 0.2157143 
-0.765625 0.328125 -0.4375 -0.8811117 3.524952 -3.728687 
-0.6875 0.390625 -0.5 -3.610294 2.860903 -3.544264 
-0.6875 0.390625 0.5 -3.610294 2.860903 3.544264 
-0.765625 0.328125 0.4375 -0.8811117 3.524952 3.728687 
-0.578125 0.4375 -0.546875 -1.281067 1.339329 -1.684878 
-0.578125 0.4375 0.546875 -1.281067 1.339329 1.684878 
-0.78125 0.335938 -0.445312 -0.6656773 1.93519 -2.110841 
-0.773438 0.242188 -0.476562 -0.9666098 -0.0773991 -3.486616 
-0.78125 0.335938 0.445312 -0.6656773 1.93519 2.110841 
-0.773438 0.242188 0.476562 -0.9666098 -0.0773991 3.486616 
-0.804688 0.375 -0.351562 -0.8920308 2.461808 -0.08073786 
-0.804688 0.375 0.351562 -0.8920308 2.461808 0.08073786 
-0.820312 0.335938 -0.265625 -1.271392 1.765355 1.662068 
-0.820312 0.335938 0.265625 -1.271392 1.765355 -1.662068 
-0.820312 0.242188 -0.226562 -0.9340359 -0.06600884 2.281668 
-0.820312 0.242188 0.226562 -0.9340359 -0.06600884 -2.281668 
-0.820312 0.15625 -0.265625 -1.285938 -1.763986 1.70648 
-0.820312 0.15625 0.265625 -1.285937 -1.763986 -1.70648 
-0.804688 0.117188 -0.351562 -0.9007555 -2.509591 -0.1135936 
-0.804688 0.117188 0.351562 -0.9007555 -2.509591 0.1135936 
-0.78125 0.15625 -0.445312 -0.657131 -1.954527 -2.109994 
-0.78125 0.15625 0.445312 -0.657131 -1.954527 2.109994 
-0.828125 0.242188 -0.351562 -5.894263 -0.03195525 -1.101081 
-0.828125 0.242188 0.351562 -5.894263 -0.03195525 1.101081 
-0.554688 -0.96875 -0.179688 -0.9523851 -5.70627 -0.9453656 
-0.632812 -0.929688 -0.164062 -3.816903 -4.683715 -0.9509861 
-0.640625 -0.945312 0 -3.822026 -4.796779 1.490116e-08 
-0.578125 -0.984375 0 -1.524761 -5.601509 0 
-0.632812 -0.929688 0.164062 -3.816903 -4.683715 0.9509861 
-0.554688 -0.96875 0.179688 -0.9523851 -5.70627 0.9453656 
-0.523438 -0.945312 -0.328125 -0.7923968 -4.077179 -2.564371 
-0.632812 -0.914062 -0.234375 -3.95377 -3.635937 -1.946536 
-0.632812 -0.914062 0.234375 -3.95377 -3.635937 1.946536 
-0.523438 -0.945312 0.328125 -0.7923968 -4.077179 2.564371 
-0.53125 -0.890625 -0.367188 -0.9285505 -1.211134 -4.441876 
-0.664062 -0.820312 -0.265625 -4.729937 -1.411603 -2.990896 
-0.664062 -0.820312 0.265625 -4.729937 -1.411603 2.990896 
-0.53125 -0.890625 0.367188 -0.9285505 -1.211134 4.441876 
-0.570312 -0.695312 -0.351562 -1.112579 0.5347537 -5.185632 
-0.6875 -0.703125 -0.25 -4.934353 -0.1780575 -3.382812 
-0.6875 -0.703125 0.25 -4.934353 -0.1780575 3.382812 
-0.570312 -0.695312 0.351562 -1.112579 0.5347537 5.185632 
-0.570312 -0.4375 -0.3125 -0.7437444 1.193347 -5.179631 
-0.710938 -0.445312 -0.210938 -4.767145 0.436913 -3.410276 
-0.710938 -0.445312 0.210938 -4.767145 0.4369131 3.410276 
-0.570312 -0.4375 0.3125 -0.7437444 1.193347 5.179631 
-0.5625 -0.1875 -0.203125 -1.083794 -1.68021 -4.442004 
-0.53125 -0.140625 -0.4375 0.07146001 -4.445035 -1.585464 
-0.671875 -0.046875 -0.398438 -4.480752 -3.299387 -2.129308 
-0.8125 -0.101562 -0.125 -3.932062 -1.077526 -0.2290911 
-0.671875 -0.046875 0.398438 -4.480752 -3.299387 2.129307 
-0.53125 -0.140625 0.4375 0.07146001 -4.445035 1.585464 
-0.5625 -0.1875 0.203125 -1.083794 -1.68021 4.442004 
-0.8125 -0.101562 0.125 -3.932062 -1.077526 0.229091 
-0.539062 -0.039062 -0.632812 -1.096695 -3.857782 -2.722913 
-0.625 0.054688 -0.617188 -4.644931 -2.192298 -2.848255 
-0.625 0.054688 0.617188 -4.644931 -2.192298 2.848255 
-0.539062 -0.039062 0.632812 -1.096695 -3.857782 2.722913 
-0.445312 0.148438 -0.828125 0.5150549 -1.469162 -3.691103 
-0.601562 0.203125 -0.726562 -4.367173 -1.9417 -3.826331 
-0.601562 0.203125 0.726562 -4.367173 -1.9417 3.826332 
-0.445312 0.148438 0.828125 0.515055 -1.469162 3.691103 
-0.59375 0.429688 -0.859375 -0.6952384 1.082422 -2.423601 
-0.65625 0.375 -0.742188 -4.559451 -2.733833 -3.279457 
-0.65625 0.375 0.742188 -4.559451 -2.733833 3.279457 
-0.59375 0.429688 0.859375 -0.6952384 1.082422 2.423601 
-0.625 0.484375 -0.710938 -0.8903565 5.061673 -2.490448 
-0.726562 0.414062 -0.6875 -3.83938 -0.2793312 -1.415328 
-0.726562 0.414062 0.6875 -3.83938 -0.2793312 1.415328 
-0.625 0.484375 0.710938 -0.8903565 5.061673 2.490448 
-0.6875 0.601562 -0.492188 -0.9689999 4.498112 -3.429814 
-0.796875 0.546875 -0.4375 -4.359559 -0.1148319 -1.304674 
-0.796875 0.546875 0.4375 -4.359559 -0.1148318 1.304674 
-0.6875 0.601562 0.492188 -0.9689999 4.498112 3.429814 
-0.734375 0.757812 -0.320312 -0.6275408 3.614748 -0.8436913 
-0.835938 0.640625 -0.3125 -4.506227 1.001246 -1.316341 
-0.835938 0.640625 0.3125 -4.506227 1.001246 1.316341 
-0.734375 0.757812 0.320312 -0.6275407 3.614748 0.8436913 
-0.757812 0.71875 -0.15625 -0.7372772 2.930846 2.245364 
-0.851562 0.617188 -0.203125 -4.512414 0.7264789 0.6005862 
-0.851562 0.617188 0.203125 -4.512414 0.7264791 -0.6005862 
-0.757812 0.71875 0.15625 -0.7372773 2.930846 -2.245364 
-0.75 0.492188 -0.0625 -0.7096637 3.105897 4.810262 
-0.84375 0.429688 -0.101562 -3.611762 -0.6447601 0.08475083 
-0.84375 0.429688 0.101562 -3.611762 -0.6447601 -0.08475083 
-0.75 0.492188 0.0625 -0.7096637 3.105897 -4.810262 
-0.742188 0.429688 0 -1.249094 5.0286 -2.980232e-08 
-0.820312 0.351562 0 -5.351715 -0.3897569 2.980232e-08 
-0.773438 0.414062 -0.164062 -5.346151 -1.226914 -1.651821 
-0.757812 0.46875 -0.25 -5.553493 -0.6877656 -1.225649 
-0.757812 0.46875 0.25 -5.553493 -0.6877656 1.225649 
-0.773438 0.414062 0.164062 -5.346151 -1.226914 1.651821 
-0.742188 0.476562 -0.328125 -5.521182 -0.7606362 -0.9965467 
-0.742188 0.476562 0.328125 -5.521182 -0.7606362 0.9965467 
-0.71875 0.4375 -0.429688 -4.632991 0.4476697 -1.106047 
-0.71875 0.4375 0.429688 -4.632991 0.4476696 1.106047 
-0.664062 0.375 -0.601562 -4.73771 -1.431735 -0.4049832 
-0.664062 0.375 0.601562 -4.73771 -1.431735 0.4049832 
-0.648438 0.296875 -0.640625 -5.599532 -0.70058 -1.198386 
-0.648438 0.296875 0.640625 -5.599532 -0.70058 1.198386 
-0.648438 0.1875 -0.625 -5.380884 -1.55332 -2.794224 
-0.648438 0.1875 0.625 -5.380884 -1.55332 2.794224 
-0.671875 0.0625 -0.492188 -5.074052 -2.209532 -2.677982 
-0.671875 0.0625 0.492188 -5.074052 -2.209532 2.677982 
-0.703125 0.015625 -0.375 -5.293608 -3.084142 -0.9530674 
-0.703125 0.015625 0.375 -5.293608 -3.084142 0.9530674 
-0.742188 0.09375 -0.203125 -5.134755 -1.774302 0.6847382 
-0.742188 0.09375 0.203125 -5.134755 -1.774302 -0.6847382 
-0.75 0.140625 -0.164062 -5.512086 -1.706769 1.810037 
-0.726562 0.046875 0 -5.917536 0.4485607 0 
-0.75 0.140625 0.164062 -5.512086 -1.706769 -1.810037 
-0.765625 0.304688 -0.125 -5.965634 -0.7214166 0.006185383 
-0.765625 0.304688 0.125 -5.965634 -0.7214167 -0.006185383 
-0.765625 0.210938 0 -6.068213 -1.504688 0 
-0.757812 0.210938 -0.132812 -5.860384 -1.010154 1.348227 
-0.757812 0.210938 0.132812 -5.860384 -1.010154 -1.348227 
-0.695312 -0.882812 -0.0625 -5.157631 -2.112952 0.3287512 
-0.6875 -0.890625 0 -5.539292 -2.04637 0 
-0.695312 -0.882812 0.0625 -5.157631 -2.112952 -0.3287512 
-0.710938 -0.835938 -0.117188 -5.468351 -1.689646 -1.151219 
-0.710938 -0.835938 0.117188 -5.468351 -1.689646 1.151219 
-0.734375 -0.71875 -0.109375 -5.977003 -0.8355547 -0.8890749 
-0.734375 -0.71875 0.109375 -5.977004 -0.8355546 0.8890749 
-0.75 -0.445312 -0.078125 -6.134685 -0.002350215 -0.8203446 
-0.734375 -0.6875 -0.117188 -6.08704 -0.2814356 -1.126016 
-0.734375 -0.6875 0.117188 -6.08704 -0.2814355 1.126016 
-0.75 -0.445312 0.078125 -6.134685 -0.002350215 0.8203446 
-0.742188 -0.289062 -0.085938 -4.203509 -2.427687 -2.366168 
-0.742188 -0.328125 0 -4.575534 -2.357552 0 
-0.75 -0.445312 0 -6.271695 -0.03065029 0 
-0.742188 -0.289062 0.085938 -4.203509 -2.427687 2.366168 
-0.734375 -0.679688 0 -6.275606 -0.2178085 0 
-0.734375 -0.765625 0 -3.791672 -2.919548 0 
-0.75 -0.226562 -0.125 -2.296322 -0.2129413 -5.238606 
-0.796875 -0.226562 -0.132812 -1.200067 -1.022502 -4.009235 
-0.78125 -0.273438 -0.09375 -2.314988 -3.835846 -3.189347 
-0.78125 -0.273438 0.09375 -2.314988 -3.835846 3.189347 
-0.796875 -0.226562 0.132812 -1.200067 -1.022502 4.009235 
-0.75 -0.226562 0.125 -2.296322 -0.2129414 5.238606 
-0.742188 -0.148438 -0.101562 -1.439358 -0.5827885 -0.832562 
-0.78125 -0.132812 -0.109375 -0.4090306 2.836562 -2.285359 
-0.78125 -0.132812 0.109375 -0.4090305 2.836562 2.285359 
-0.742188 -0.148438 0.101562 -1.439358 -0.5827886 0.8325619 
-0.742188 -0.140625 0 -4.67565 1.068527 0 
-0.78125 -0.125 -0.039062 -0.7224751 3.94765 1.245402 
-0.78125 -0.125 0.039062 -0.7224751 3.94765 -1.245402 
-0.75 -0.195312 0 -0.7966509 1.223646 0 
-0.796875 -0.1875 0 -1.450872 4.305113 2.980232e-08 
-0.78125 -0.320312 0 -2.430744 -4.30562 -1.490116e-08 
-0.804688 -0.25 -0.078125 -4.885407 -3.630508 -1.135071 
-0.804688 -0.289062 0 -5.11956 -2.81281 0 
-0.804688 -0.25 0.078125 -4.885407 -3.630508 1.135071 
-0.828125 -0.203125 0 -5.334692 0.8487328 0 
-0.8125 -0.148438 -0.046875 -4.161607 3.199809 1.001647 
-0.8125 -0.148438 0.046875 -4.161607 3.199809 -1.001647 
-0.8125 -0.15625 -0.09375 -4.345067 2.570157 -1.936653 
-0.8125 -0.15625 0.09375 -4.345067 2.570157 1.936653 
-0.828125 -0.226562 -0.109375 -3.25166 -1.235039 -1.740162 
-0.828125 -0.226562 0.109375 -3.25166 -1.235039 1.740162 
-0.710938 -0.242188 -0.164062 -3.300681 0.876913 -5.139309 
-0.710938 -0.242188 0.164062 -3.300681 0.8769129 5.139309 
-0.710938 -0.3125 -0.179688 -4.385124 0.7904283 -3.867227 
-0.710938 -0.3125 0.179688 -4.385124 0.7904283 3.867227 
-0.554688 -0.3125 -0.257812 -0.6146975 2.241007 -5.567223 
-0.554688 -0.3125 0.257812 -0.6146975 2.241007 5.567223 
-0.554688 -0.25 -0.234375 -0.6545632 2.311725 -5.519516 
-0.554688 -0.25 0.234375 -0.6545632 2.311725 5.519516 
-0.71875 -0.773438 0 -1.726716 -5.385288 0 
-0.726562 -0.742188 -0.09375 -4.964658 -2.723478 1.161049 
-0.726562 -0.742188 0.09375 -4.964658 -2.723478 -1.161049 
-0.710938 -0.820312 -0.09375 -3.896634 0.2160193 3.209028 
-0.710938 -0.820312 0.09375 -3.896634 0.2160193 -3.209028 
-0.6875 -0.867188 -0.046875 -4.034888 3.334365 2.38141 
-0.6875 -0.867188 0.046875 -4.034888 3.334365 -2.38141 
-0.6875 -0.875 0 -4.299569 2.896874 -7.450581e-09 
-0.632812 -0.851562 -0.046875 -3.226058 1.848901 1.151666 
-0.632812 -0.859375 0 -3.579761 2.257511 0 
-0.632812 -0.851562 0.046875 -3.226058 1.848901 -1.151666 
-0.640625 -0.8125 -0.09375 -2.321388 0.3672708 2.143033 
-0.640625 -0.8125 0.09375 -2.321388 0.3672708 -2.143033 
-0.664062 -0.75 -0.09375 -1.374591 -1.991461 1.464094 
-0.664062 -0.75 0.09375 -1.374591 -1.991461 -1.464094 
-0.65625 -0.78125 0 -3.97123 -3.881187 0 
-0.773438 0.15625 -0.1875 -4.833552 -0.06440912 0.06675386 
-0.78125 0.21875 -0.171875 -4.680201 -0.4007932 -0.7519757 
-0.773438 0.15625 0.1875 -4.833552 -0.06440912 -0.06675386 
-0.78125 0.21875 0.171875 -4.680201 -0.4007932 0.7519757 
-0.78125 0.296875 -0.179688 -4.937004 -0.435011 -1.565052 
-0.78125 0.296875 0.179688 -4.937004 -0.435011 1.565052 
-0.78125 0.375 -0.210938 -5.565055 -0.5322282 -1.174733 
-0.78125 0.375 0.210938 -5.565055 -0.5322282 1.174733 
-0.78125 0.109375 -0.226562 -3.395697 -0.7963567 0.001622617 
-0.78125 0.109375 0.226562 -3.395697 -0.7963567 -0.001622617 
-0.742188 0.0625 -0.375 -4.703883 -0.9142231 -0.9625064 
-0.742188 0.0625 0.375 -4.703883 -0.914223 0.9625065 
-0.71875 0.101562 -0.476562 -4.343642 -0.1592575 -1.311218 
-0.71875 0.101562 0.476562 -4.343642 -0.1592575 1.311218 
-0.679688 0.195312 -0.578125 -5.51222 -0.5156924 -1.67398 
-0.679688 0.195312 0.578125 -5.51222 -0.5156924 1.67398 
-0.6875 0.289062 -0.585938 -5.342076 -0.4138508 -0.9166798 
-0.6875 0.289062 0.585938 -5.342076 -0.4138508 0.9166798 
-0.695312 0.351562 -0.5625 -5.354409 -0.5505722 -1.761781 
-0.695312 0.351562 0.5625 -5.354409 -0.5505722 1.761781 
-0.773438 0.398438 -0.421875 -2.644979 -0.3879082 -0.3956902 
-0.773438 0.398438 0.421875 -2.644979 -0.3879082 0.3956902 
-0.757812 0.429688 -0.335938 -5.818275 0.8022692 -1.027736 
-0.757812 0.429688 0.335938 -5.818275 0.8022692 1.027736 
-0.773438 0.421875 -0.273438 -5.77216 0.3791901 -0.7674388 
-0.773438 0.421875 0.273438 -5.77216 0.3791901 0.7674388 
-0.757812 0.359375 -0.234375 -2.609716 -1.29927 -1.524741 
-0.765625 0.398438 -0.28125 -3.567464 -1.010454 -0.6567904 
-0.757812 0.359375 0.234375 -2.609716 -1.29927 1.524741 
-0.765625 0.398438 0.28125 -3.567464 -1.010454 0.6567904 
-0.75 0.40625 -0.335938 -2.996206 -1.224465 -0.0004694611 
-0.75 0.40625 0.335938 -2.996206 -1.224465 0.0004694611 
-0.75 0.390625 -0.414062 -1.392819 -3.376361 0.5144991 
-0.75 0.390625 0.414062 -1.392819 -3.376361 -0.5144991 
-0.679688 0.335938 -0.53125 -2.753956 -1.835688 0.495817 
-0.679688 0.335938 0.53125 -2.753955 -1.835688 -0.495817 
-0.671875 0.28125 -0.554688 -3.198318 -0.5201388 1.367736 
-0.671875 0.28125 0.554688 -3.198318 -0.5201388 -1.367736 
-0.671875 0.210938 -0.546875 -3.475533 0.8004134 0.5348683 
-0.671875 0.210938 0.546875 -3.475533 0.8004134 -0.5348682 
-0.703125 0.117188 -0.460938 -2.739036 2.058807 0.608362 
-0.703125 0.117188 0.460938 -2.739036 2.058807 -0.608362 
-0.726562 0.085938 -0.375 -2.943221 1.999169 -0.6635913 
-0.726562 0.085938 0.375 -2.943221 1.999169 0.6635913 
-0.757812 0.125 -0.242188 -2.571502 2.271005 -1.586242 
-0.757812 0.125 0.242188 -2.571502 2.271005 1.586242 
-0.75 0.171875 -0.203125 -2.184473 0.9857951 -2.272518 
-0.75 0.171875 0.203125 -2.184473 0.9857951 2.272518 
-0.757812 0.296875 -0.195312 -2.0295 -0.7119226 -2.765646 
-0.757812 0.296875 0.195312 -2.0295 -0.7119226 2.765646 
-0.75 0.226562 -0.195312 -1.867324 0.03441352 -2.504586 
-0.75 0.226562 0.195312 -1.867324 0.03441352 2.504586 
-0.609375 0.460938 -0.109375 -0.8656436 3.507706 1.873158 
-0.601562 0.40625 0 -1.766409 2.966506 5.960464e-08 
-0.609375 0.460938 0.109375 -0.8656439 3.507706 -1.873158 
-0.617188 0.664062 -0.195312 3.531182 2.614551 2.355863 
-0.617188 0.664062 0.195312 3.531182 2.614551 -2.355863 
-0.59375 0.6875 -0.335938 3.479996 3.049515 -0.5245703 
-0.59375 0.6875 0.335938 3.479996 3.049515 0.5245703 
-0.554688 0.554688 -0.484375 2.467079 5.358624 -1.258302 
-0.554688 0.554688 0.484375 2.467079 5.358624 1.258302 
-0.492188 0.453125 -0.679688 1.304101 5.633534 -2.325522 
-0.492188 0.453125 0.679688 1.304101 5.633534 2.325522 
-0.460938 0.40625 -0.796875 1.66542 3.38606 -3.966284 
-0.460938 0.40625 0.796875 1.66542 3.38606 3.966284 
-0.375 0.164062 -0.773438 0.8276303 -2.312388 -5.343303 
-0.375 0.164062 0.773438 0.8276304 -2.312388 5.343303 
-0.414062 0 -0.601562 0.3220955 -5.056125 -3.287698 
-0.414062 0 0.601562 0.3220956 -5.056125 3.287698 
-0.46875 -0.09375 -0.4375 0.968011 -5.101875 -2.670442 
-0.46875 -0.09375 0.4375 0.968011 -5.101875 2.670442 
-0.320312 -0.570312 0 5.754339 -1.989407 0 
-0.28125 -0.484375 0 4.190009 -4.121052 -5.960464e-08 
-0.257812 -0.414062 -0.179688 1.066696 -4.764587 -3.639318 
-0.359375 -0.539062 -0.125 5.113856 -1.621629 -2.280507 
-0.257812 -0.414062 0.179688 1.066696 -4.764587 3.639318 
-0.359375 -0.539062 0.125 5.113856 -1.621629 2.280507 
-0.34375 -0.804688 0 5.211228 -1.990896 0 
-0.367188 -0.757812 -0.140625 5.958089 -1.307923 -1.018814 
-0.367188 -0.757812 0.140625 5.958089 -1.307923 1.018814 
-0.460938 -0.976562 0 2.8149 -4.588415 0 
-0.4375 -0.945312 -0.164062 3.677791 -4.017847 -0.2624583 
-0.4375 -0.945312 0.164062 3.677791 -4.017847 0.2624583 
-0.398438 -0.914062 -0.328125 2.389676 -1.476554 -1.678797 
-0.398438 -0.914062 0.328125 2.389676 -1.476554 1.678797 
-0.382812 -0.710938 -0.289062 4.081209 0.1709165 -3.106513 
-0.382812 -0.710938 0.289062 4.081209 0.1709165 3.106513 
-0.390625 -0.5 -0.25 4.230116 0.7866023 -3.493831 
-0.390625 -0.5 0.25 4.230116 0.7866023 3.493831 
-0.40625 -0.351562 -0.234375 1.909385 0.6422255 -5.764219 
-0.40625 -0.351562 0.234375 1.909385 0.6422254 5.764219 
-0.429688 -0.28125 -0.21875 -0.3911699 -0.8381174 -5.123715 
-0.46875 -0.226562 -0.210938 -2.105759 -0.5531577 -3.952231 
-0.46875 -0.226562 0.210938 -2.105759 -0.5531577 3.952231 
-0.429688 -0.28125 0.21875 -0.3911699 -0.8381174 5.123714 
-0.5 -0.171875 -0.203125 -1.064417 -2.16866 -2.761071 
-0.5 -0.171875 0.203125 -1.064417 -2.16866 2.761071 
0.828125 0.070312 0 5.028419 -1.378157 5.960464e-08 
0.664062 0.054688 -0.335938 5.147943 -1.969824 -2.703549 
0.539062 -0.148438 -0.34375 3.085325 -3.7905 -3.026403 
0.671875 -0.195312 0 3.861903 -3.739162 4.470348e-08 
0.539062 -0.148438 0.34375 3.085325 -3.7905 3.026403 
0.664062 0.054688 0.335938 5.147943 -1.969823 2.703549 
0.265625 -0.3125 -0.296875 1.346519 -4.903157 -2.926679 
0.351562 -0.382812 0 1.950808 -5.297937 -8.195639e-08 
0.265625 -0.3125 0.296875 1.346519 -4.903157 2.926679 
-0.164062 -0.390625 -0.210938 0.01194829 -4.904332 -3.372283 
-0.1875 -0.460938 0 1.104055 -5.921169 -5.960464e-08 
-0.164062 -0.390625 0.210938 0.01194829 -4.904332 3.372283 
-0.070312 -0.046875 -0.734375 -0.4616697 -3.795971 -3.986232 
-0.054688 0.234375 -0.851562 -0.2052125 -0.969458 -5.752833 
-0.070312 -0.046875 0.734375 -0.4616697 -3.795971 3.986232 
-0.054688 0.234375 0.851562 -0.2052125 -0.9694579 5.752833 
0.851562 0.5625 0 4.557333 1.6255 0 
0.703125 0.4375 -0.460938 4.860576 0.842411 -2.528635 
0.703125 0.4375 0.460938 4.860576 0.842411 2.528635 
-0.289062 0.898438 0 -3.04775 4.871178 -1.490116e-08 
-0.234375 0.851562 -0.453125 -2.649457 3.834803 -2.444211 
0.070312 0.929688 -0.453125 -0.2063549 5.098188 -2.333068 
0.078125 0.984375 0 -0.1121932 6.006279 -2.980232e-08 
0.070312 0.929688 0.453125 -0.2063549 5.098188 2.333068 
-0.234375 0.851562 0.453125 -2.649457 3.834803 2.444211 
0.382812 0.867188 -0.453125 2.390041 4.565196 -2.190886 
0.546875 0.898438 0 2.980591 4.509708 0 
0.382812 0.867188 0.453125 2.390041 4.565196 2.190886 
-0.335938 0.40625 -0.726562 -0.19398 4.981587 -3.250512 
-0.28125 0.453125 -0.632812 -2.168352 4.163646 -2.391459 
-0.335938 0.40625 0.726562 -0.19398 4.981587 3.250513 
-0.28125 0.453125 0.632812 -2.168352 4.163646 2.391459 
-0.125 0.5625 -0.796875 -2.177241 2.627942 -3.774585 
-0.054688 0.703125 -0.640625 -1.973407 4.149829 -4.127002 
-0.125 0.5625 0.796875 -2.177241 2.627942 3.774585 
-0.054688 0.703125 0.640625 -1.973407 4.149829 4.127002 
0.117188 0.617188 -0.796875 0.1437695 2.930788 -4.81253 
0.195312 0.75 -0.640625 0.4312279 4.535905 -4.207458 
0.117188 0.617188 0.796875 0.1437695 2.930788 4.81253 
0.195312 0.75 0.640625 0.4312279 4.535905 4.207458 
0.359375 0.539062 -0.796875 1.880614 1.334225 -4.566813 
0.445312 0.679688 -0.640625 3.144892 3.170588 -3.477198 
0.359375 0.539062 0.796875 1.880614 1.334225 4.566813 
0.445312 0.679688 0.640625 3.144892 3.170588 3.477198 
0.4375 0.265625 -0.773438 4.406301 -0.1013762 -3.977359 
0.585938 0.328125 -0.617188 4.62523 -0.4087606 -3.669289 
0.585938 0.328125 0.617188 4.62523 -0.4087606 3.669289 
0.4375 0.265625 0.773438 4.406301 -0.1013762 3.977359 
-0.429688 0.523438 -0.460938 -1.67344 4.849718 -1.606953 
-0.429688 0.523438 0.460938 -1.67344 4.849718 1.606953 
-0.570312 0.570312 0 -5.106855 2.955814 2.980232e-08 
0.046875 0.320312 -0.859375 0.3096383 -0.1909634 -5.888394 
0.046875 0.320312 0.859375 0.3096383 -0.1909634 5.888394 
0.203125 0.328125 -0.820312 -0.6686591 2.473547 -3.672033 
0.203125 0.328125 0.820312 -0.6686591 2.473548 3.672033 
0.210938 -0.195312 -0.429688 1.001472 -4.862803 -3.693082 
-0.148438 -0.171875 -0.40625 -0.9603301 -4.918357 -3.62525 
0.210938 -0.195312 0.429688 1.001472 -4.862803 3.693082 
-0.148438 -0.171875 0.40625 -0.9603301 -4.918357 3.62525 
0.164062 -0.125 -0.59375 0.2677956 -5.722148 -1.648973 
0.164062 -0.125 0.59375 0.2677956 -5.722148 1.648973 
0.429688 -0.007812 -0.640625 4.180655 -3.630393 -1.547573 
0.546875 0.023438 -0.484375 4.10731 -3.034169 -3.294507 
0.546875 0.023438 0.484375 4.10731 -3.034169 3.294507 
0.429688 -0.007812 0.640625 4.180655 -3.630393 1.547573 
0.3125 0.476562 -1.023438 -1.785446 3.408501 0.04607773 
0.234375 0.40625 -0.890625 -2.395661 3.379081 1.374054 
0.21875 0.359375 -0.921875 -4.602646 -0.1135334 -2.268533 
0.289062 0.414062 -1.015625 -4.704584 -0.5978655 -3.394788 
0.21875 0.359375 0.921875 -4.602646 -0.1135334 2.268533 
0.234375 0.40625 0.890625 -2.395661 3.379081 -1.374054 
0.3125 0.476562 1.023438 -1.785446 3.408501 -0.04607773 
0.289062 0.414062 1.015625 -4.704584 -0.5978655 3.394788 
0.390625 0.4375 -1.1875 -5.605019 -0.5660961 -2.255296 
0.421875 0.507812 -1.234375 -1.062521 2.772779 -1.146194 
0.390625 0.4375 1.1875 -5.605019 -0.5660961 2.255295 
0.421875 0.507812 1.234375 -1.062521 2.772779 1.146194 
0.40625 0.289062 -1.265625 -5.668008 -0.4472616 0.8897239 
0.421875 0.320312 -1.351562 -2.668491 0.7504277 -3.267913 
0.40625 0.289062 1.265625 -5.668008 -0.4472616 -0.8897239 
0.421875 0.320312 1.351562 -2.668491 0.7504277 3.267913 
0.40625 0.078125 -1.210938 -5.258797 2.03936 0.2617452 
0.429688 0.054688 -1.28125 -2.818295 -2.339298 -3.230126 
0.40625 0.078125 1.210938 -5.258797 2.03936 -0.2617452 
0.429688 0.054688 1.28125 -2.818295 -2.339298 3.230126 
0.304688 -0.039062 -1.03125 -4.458636 1.661169 -2.80566 
0.328125 -0.101562 -1.039062 -1.790264 -3.853312 -2.359403 
0.304688 -0.039062 1.03125 -4.458636 1.661169 2.80566 
0.328125 -0.101562 1.039062 -1.790264 -3.853312 2.359403 
0.132812 -0.070312 -0.828125 -3.721407 1.328222 -1.414489 
0.125 -0.140625 -0.773438 -2.457596 -2.070568 -0.122769 
0.132812 -0.070312 0.828125 -3.721407 1.328222 1.414489 
0.125 -0.140625 0.773438 -2.457596 -2.070568 0.122769 
0.367188 0 -1.039062 -1.325522 5.830538 1.271681 
0.210938 -0.023438 -0.882812 -2.670772 4.743944 -0.9106418 
0.210938 -0.023438 0.882812 -2.670772 4.743944 0.9106418 
0.367188 0 1.039062 -1.325522 5.830538 -1.271682 
0.445312 0.09375 -1.1875 0.2930034 3.286333 4.552387 
0.445312 0.09375 1.1875 0.2930034 3.286333 -4.552386 
0.445312 0.25 -1.234375 -0.7251235 -0.455675 5.643321 
0.445312 0.25 1.234375 -0.7251235 -0.455675 -5.643321 
0.4375 0.359375 -1.171875 -3.599281 -4.233589 0.8041307 
0.4375 0.359375 1.171875 -3.599281 -4.233589 -0.8041307 
0.359375 0.34375 -1.023438 -3.093125 -4.187441 -3.403482 
0.359375 0.34375 1.023438 -3.093125 -4.187441 3.403482 
0.289062 0.304688 -0.945312 -2.706869 -3.395927 -4.413177 
0.289062 0.304688 0.945312 -2.706869 -3.395927 4.413177 
0.171875 -0.023438 -0.71875 -3.003785 0.6219206 -3.610901 
0.070312 0 -0.726562 0.8052133 -1.284291 -5.989139 
0.171875 -0.023438 0.71875 -3.003785 0.6219206 3.610901 
0.070312 0 0.726562 0.8052133 -1.284291 5.989139 
0.210938 0.289062 -0.84375 -3.24846 -1.493599 -4.347013 
0.210938 0.289062 0.84375 -3.24846 -1.493599 4.347013 
0.273438 -0.015625 -0.8125 -1.747759 1.394005 -2.448941 
0.273438 -0.015625 0.8125 -1.747759 1.394005 2.448941 
0.273438 0.015625 -0.84375 -2.062798 -0.6952364 -3.775827 
0.1875 0.039062 -0.71875 -1.600005 -0.4028674 -4.785517 
0.1875 0.039062 0.71875 -1.600005 -0.4028674 4.785517 
0.273438 0.015625 0.84375 -2.062798 -0.6952364 3.775827 
0.273438 0.09375 -0.757812 -1.369256 -0.3243924 -3.650575 
0.273438 0.085938 -0.820312 -1.931132 2.177887 -1.490134 
0.273438 0.09375 0.757812 -1.369256 -0.3243924 3.650576 
0.273438 0.085938 0.820312 -1.931132 2.177887 1.490134 
0.273438 0.171875 -0.835938 -2.103696 -3.403771 -4.489857 
0.210938 0.203125 -0.796875 -1.899392 -2.392303 -4.997467 
0.210938 0.203125 0.796875 -1.899392 -2.392303 4.997467 
0.273438 0.171875 0.835938 -2.103696 -3.403771 4.489857 
0.265625 0.242188 -0.890625 -2.760663 -3.217434 -3.947974 
0.265625 0.242188 0.890625 -2.760663 -3.217434 3.947974 
0.320312 0.234375 -0.890625 -3.131811 -2.287175 -3.55947 
0.34375 0.289062 -0.953125 -3.540634 -2.403528 -3.619578 
0.320312 0.234375 0.890625 -3.131811 -2.287175 3.55947 
0.34375 0.289062 0.953125 -3.540634 -2.403528 3.619578 
0.320312 0.171875 -0.84375 -3.629968 -2.175034 -2.592733 
0.320312 0.171875 0.84375 -3.629968 -2.175034 2.592733 
0.320312 0.09375 -0.765625 -1.297791 0.4930128 -1.604389 
0.320312 0.09375 0.765625 -1.297791 0.4930128 1.604389 
0.320312 0.078125 -0.828125 -4.16665 1.994993 -2.269511 
0.320312 0.078125 0.828125 -4.16665 1.994993 2.269511 
0.320312 0.015625 -0.851562 -3.911142 -2.078177 -3.750615 
0.320312 0.015625 0.851562 -3.911142 -2.078177 3.750615 
0.320312 -0.015625 -0.8125 -0.6827275 0.3515197 -0.7356153 
0.320312 -0.015625 0.8125 -0.6827275 0.3515197 0.7356153 
0.265625 -0.015625 -0.882812 -1.864047 5.822445 0.1231849 
0.265625 -0.015625 0.882812 -1.864047 5.822445 -0.1231849 
0.414062 0.328125 -1.039062 -3.469844 -1.386602 -1.945332 
0.414062 0.328125 1.039062 -3.469845 -1.386602 1.945332 
0.484375 0.34375 -1.1875 -1.6659 -1.104071 0.5434669 
0.484375 0.34375 1.1875 -1.6659 -1.104071 -0.5434669 
0.492188 0.242188 -1.257812 -0.8570617 -0.08116251 1.018618 
0.492188 0.242188 1.257812 -0.8570617 -0.08116251 -1.018618 
0.484375 0.085938 -1.210938 -0.7944366 0.6200476 0.7577405 
0.484375 0.085938 1.210938 -0.7944365 0.6200474 -0.7577405 
0.421875 0 -1.046875 -2.13032 2.084842 -0.3325037 
0.421875 0 1.046875 -2.13032 2.084842 0.3325037 
0.335938 0.0625 -0.9375 -5.539032 0.895252 -2.430935 
0.328125 0.109375 -0.890625 -6.121186 -0.04756384 -1.30615 
0.335938 0.0625 0.9375 -5.539032 0.895252 2.430935 
0.328125 0.109375 0.890625 -6.121186 -0.04756384 1.30615 
0.367188 0.125 -1 -5.651582 -0.5790518 -2.606809 
0.351562 0.171875 -0.960938 -5.871489 -0.1255926 -2.226406 
0.367188 0.125 1 -5.651582 -0.5790517 2.606809 
0.351562 0.171875 0.960938 -5.871489 -0.1255926 2.226406 
0.382812 0.1875 -1.054688 -5.786716 -0.7107543 -2.143938 
0.375 0.234375 -1.015625 -5.861812 0.6749952 -1.9924 
0.382812 0.1875 1.054688 -5.786716 -0.7107543 2.143938 
0.375 0.234375 1.015625 -5.861812 0.6749952 1.9924 
0.390625 0.210938 -1.109375 -3.85412 -1.780407 -2.291833 
0.390625 0.273438 -1.085938 -5.227722 1.884625 -1.697866 
0.390625 0.210938 1.109375 -3.85412 -1.780407 2.291833 
0.390625 0.273438 1.085938 -5.227722 1.884625 1.697866 
0.328125 -0.125 -0.789062 2.77042 -4.362159 0.5077543 
0.492188 -0.085938 -1.039062 2.669952 -2.467957 0.1025319 
0.328125 -0.125 0.789062 2.77042 -4.362159 -0.5077543 
0.492188 -0.085938 1.039062 2.669952 -2.467957 -0.102532 
0.53125 0.054688 -1.3125 1.644758 -1.42398 -1.786654 
0.53125 0.054688 1.3125 1.644758 -1.42398 1.786654 
0.5 0.296875 -1.367188 1.58607 0.3661067 -3.933077 
0.5 0.296875 1.367188 1.58607 0.3661068 3.933077 
0.546875 0.46875 -1.25 2.409206 1.962516 -0.8677226 
0.546875 0.46875 1.25 2.409206 1.962516 0.8677226 
0.484375 0.4375 -1.023438 3.295533 2.620996 1.924926 
0.484375 0.4375 1.023438 3.295533 2.620996 -1.924926 
0.382812 0.382812 -0.859375 2.151653 2.800692 3.039837 
0.382812 0.382812 0.859375 2.151653 2.800692 -3.039837 
3 1 0 2 
3 2 0 3 
3 5 4 6 
3 6 4 7 
3 2 3 8 
3 8 3 9 
3 4 10 7 
3 7 10 11 
3 12 2 13 
3 13 2 8 
3 15 14 4 
3 4 14 10 
3 16 1 12 
3 12 1 2 
3 17 15 5 
3 5 15 4 
3 18 16 19 
3 19 16 12 
3 21 20 17 
3 17 20 15 
3 19 12 22 
3 22 12 13 
3 20 23 15 
3 15 23 14 
3 24 19 25 
3 25 19 22 
3 27 26 20 
3 20 26 23 
3 28 18 24 
3 24 18 19 
3 29 27 21 
3 21 27 20 
3 30 28 31 
3 31 28 24 
3 33 32 29 
3 29 32 27 
3 31 24 34 
3 34 24 25 
3 32 35 27 
3 27 35 26 
3 36 31 37 
3 37 31 34 
3 39 38 32 
3 32 38 35 
3 40 30 36 
3 36 30 31 
3 41 39 33 
3 33 39 32 
3 42 40 43 
3 43 40 36 
3 45 44 41 
3 41 44 39 
3 43 36 46 
3 46 36 37 
3 44 47 39 
3 39 47 38 
3 3 43 9 
3 9 43 46 
3 7 11 44 
3 44 11 47 
3 0 42 3 
3 3 42 43 
3 6 7 45 
3 45 7 44 
3 42 0 48 
3 48 0 49 
3 45 50 6 
3 6 50 51 
3 40 42 52 
3 52 42 48 
3 41 53 45 
3 45 53 50 
3 30 40 54 
3 54 40 52 
3 33 55 41 
3 41 55 53 
3 28 30 56 
3 56 30 54 
3 29 57 33 
3 33 57 55 
3 18 28 58 
3 58 28 56 
3 21 59 29 
3 29 59 57 
3 16 18 60 
3 60 18 58 
3 17 61 21 
3 21 61 59 
3 1 16 62 
3 62 16 60 
3 5 63 17 
3 17 63 61 
3 0 1 49 
3 49 1 62 
3 6 51 5 
3 5 51 63 
3 62 64 49 
3 63 51 65 
3 62 60 64 
3 63 65 61 
3 58 64 60 
3 59 61 65 
3 56 64 58 
3 57 59 65 
3 54 64 56 
3 55 57 65 
3 52 64 54 
3 53 55 65 
3 48 64 52 
3 50 53 65 
3 49 64 48 
3 51 50 65 
3 67 66 68 
3 68 66 69 
3 70 68 71 
3 71 68 69 
3 73 72 67 
3 67 72 66 
3 74 70 75 
3 75 70 71 
3 77 76 73 
3 73 76 72 
3 78 74 79 
3 79 74 75 
3 81 80 77 
3 77 80 76 
3 82 78 83 
3 83 78 79 
3 85 84 81 
3 81 84 80 
3 86 82 87 
3 87 82 83 
3 89 88 90 
3 90 88 91 
3 93 92 94 
3 94 92 95 
3 96 89 97 
3 97 89 90 
3 99 98 93 
3 93 98 92 
3 100 96 101 
3 101 96 97 
3 103 102 99 
3 99 102 98 
3 104 100 105 
3 105 100 101 
3 107 106 103 
3 103 106 102 
3 108 104 109 
3 109 104 105 
3 111 110 107 
3 107 110 106 
3 112 108 113 
3 113 108 109 
3 115 114 111 
3 111 114 110 
3 116 112 117 
3 117 112 113 
3 119 118 115 
3 115 118 114 
3 120 116 121 
3 121 116 117 
3 123 122 119 
3 119 122 118 
3 124 120 125 
3 125 120 121 
3 127 126 123 
3 123 126 122 
3 128 124 129 
3 129 124 125 
3 128 129 127 
3 127 129 126 
3 131 130 121 
3 121 130 125 
3 132 122 133 
3 133 122 126 
3 134 131 117 
3 117 131 121 
3 135 118 132 
3 132 118 122 
3 113 136 117 
3 117 136 134 
3 114 118 137 
3 137 118 135 
3 109 138 113 
3 113 138 136 
3 110 114 139 
3 139 114 137 
3 105 140 109 
3 109 140 138 
3 106 110 141 
3 141 110 139 
3 101 142 105 
3 105 142 140 
3 102 106 143 
3 143 106 141 
3 97 144 101 
3 101 144 142 
3 98 102 145 
3 145 102 143 
3 90 146 97 
3 97 146 144 
3 92 98 147 
3 147 98 145 
3 91 148 90 
3 90 148 146 
3 95 92 149 
3 149 92 147 
3 150 148 151 
3 151 148 91 
3 152 151 149 
3 149 151 95 
3 125 130 129 
3 129 130 153 
3 126 129 133 
3 133 129 154 
3 129 153 155 
3 155 153 156 
3 129 155 154 
3 154 155 157 
3 150 151 156 
3 156 151 155 
3 152 157 151 
3 151 157 155 
3 159 158 68 
3 68 158 67 
3 159 68 160 
3 160 68 70 
3 158 161 67 
3 67 161 73 
3 160 70 162 
3 162 70 74 
3 161 163 73 
3 73 163 77 
3 162 74 164 
3 164 74 78 
3 165 85 166 
3 166 85 81 
3 168 167 86 
3 86 167 82 
3 77 163 81 
3 81 163 166 
3 78 82 164 
3 164 82 167 
3 170 169 171 
3 171 169 165 
3 170 171 172 
3 172 171 168 
3 165 166 171 
3 171 166 173 
3 168 171 167 
3 167 171 173 
3 163 174 166 
3 166 174 173 
3 164 167 174 
3 174 167 173 
3 176 175 177 
3 177 175 169 
3 179 178 180 
3 180 178 172 
3 182 181 176 
3 176 181 175 
3 183 179 184 
3 184 179 180 
3 186 185 182 
3 182 185 181 
3 187 183 185 
3 185 183 184 
3 189 188 186 
3 186 188 185 
3 189 187 188 
3 188 187 185 
3 169 170 177 
3 177 170 190 
3 172 178 170 
3 170 178 190 
3 177 190 191 
3 191 190 192 
3 178 193 190 
3 190 193 192 
3 194 189 195 
3 195 189 186 
3 194 196 189 
3 189 196 187 
3 195 186 197 
3 197 186 182 
3 196 198 187 
3 187 198 183 
3 197 182 199 
3 199 182 176 
3 198 200 183 
3 183 200 179 
3 199 176 191 
3 191 176 177 
3 200 193 179 
3 179 193 178 
3 199 194 197 
3 197 194 195 
3 200 198 194 
3 194 198 196 
3 192 194 191 
3 191 194 199 
3 192 193 194 
3 194 193 200 
3 181 185 91 
3 91 185 151 
3 184 95 185 
3 185 95 151 
3 175 181 201 
3 201 181 91 
3 180 202 184 
3 184 202 95 
3 169 175 203 
3 203 175 201 
3 172 204 180 
3 180 204 202 
3 165 169 85 
3 85 169 203 
3 168 86 172 
3 172 86 204 
3 205 84 203 
3 203 84 85 
3 206 204 87 
3 87 204 86 
3 207 205 201 
3 201 205 203 
3 208 202 206 
3 206 202 204 
3 91 88 201 
3 201 88 207 
3 95 202 94 
3 94 202 208 
3 174 163 209 
3 209 163 210 
3 174 209 164 
3 164 209 211 
3 163 161 210 
3 210 161 212 
3 164 211 162 
3 162 211 213 
3 161 158 212 
3 212 158 214 
3 162 213 160 
3 160 213 215 
3 158 159 214 
3 214 159 216 
3 160 215 159 
3 159 215 216 
3 214 216 217 
3 217 216 218 
3 215 219 216 
3 216 219 218 
3 212 214 220 
3 220 214 217 
3 213 221 215 
3 215 221 219 
3 210 212 222 
3 222 212 220 
3 211 223 213 
3 213 223 221 
3 209 210 224 
3 224 210 222 
3 209 224 211 
3 211 224 223 
3 218 224 217 
3 217 224 222 
3 218 219 224 
3 224 219 223 
3 217 222 220 
3 219 221 223 
3 150 156 225 
3 225 156 226 
3 152 227 157 
3 157 227 228 
3 156 153 226 
3 226 153 229 
3 157 228 154 
3 154 228 230 
3 153 130 229 
3 229 130 231 
3 154 230 133 
3 133 230 232 
3 148 150 233 
3 233 150 225 
3 149 234 152 
3 152 234 227 
3 146 148 235 
3 235 148 233 
3 147 236 149 
3 149 236 234 
3 144 146 237 
3 237 146 235 
3 145 238 147 
3 147 238 236 
3 142 144 239 
3 239 144 237 
3 143 240 145 
3 145 240 238 
3 140 142 241 
3 241 142 239 
3 141 242 143 
3 143 242 240 
3 138 140 243 
3 243 140 241 
3 139 244 141 
3 141 244 242 
3 136 138 245 
3 245 138 243 
3 137 246 139 
3 139 246 244 
3 134 136 247 
3 247 136 245 
3 135 248 137 
3 137 248 246 
3 131 134 249 
3 249 134 247 
3 132 250 135 
3 135 250 248 
3 130 131 231 
3 231 131 249 
3 133 232 132 
3 132 232 250 
3 231 249 251 
3 251 249 252 
3 232 253 250 
3 250 253 254 
3 249 247 252 
3 252 247 255 
3 250 254 248 
3 248 254 256 
3 247 245 255 
3 255 245 257 
3 248 256 246 
3 246 256 258 
3 245 243 257 
3 257 243 259 
3 246 258 244 
3 244 258 260 
3 243 241 259 
3 259 241 261 
3 244 260 242 
3 242 260 262 
3 241 239 261 
3 261 239 263 
3 242 262 240 
3 240 262 264 
3 239 237 263 
3 263 237 265 
3 240 264 238 
3 238 264 266 
3 237 235 265 
3 265 235 267 
3 238 266 236 
3 236 266 268 
3 235 233 267 
3 267 233 269 
3 236 268 234 
3 234 268 270 
3 233 225 269 
3 269 225 271 
3 234 270 227 
3 227 270 272 
3 229 231 273 
3 273 231 251 
3 230 274 232 
3 232 274 253 
3 226 229 275 
3 275 229 273 
3 228 276 230 
3 230 276 274 
3 225 226 271 
3 271 226 275 
3 227 272 228 
3 228 272 276 
3 124 128 277 
3 277 128 278 
3 127 279 128 
3 128 279 278 
3 120 124 280 
3 280 124 277 
3 123 281 127 
3 127 281 279 
3 116 120 282 
3 282 120 280 
3 119 283 123 
3 123 283 281 
3 112 116 284 
3 284 116 282 
3 115 285 119 
3 119 285 283 
3 108 112 286 
3 286 112 284 
3 111 287 115 
3 115 287 285 
3 104 108 288 
3 288 108 286 
3 107 289 111 
3 111 289 287 
3 100 104 290 
3 290 104 288 
3 103 291 107 
3 107 291 289 
3 96 100 292 
3 292 100 290 
3 99 293 103 
3 103 293 291 
3 89 96 294 
3 294 96 292 
3 93 295 99 
3 99 295 293 
3 297 296 298 
3 298 296 299 
3 297 300 296 
3 296 300 301 
3 296 302 299 
3 299 302 303 
3 296 301 302 
3 302 301 304 
3 302 305 303 
3 303 305 306 
3 302 304 305 
3 305 304 307 
3 69 66 305 
3 305 66 306 
3 69 305 71 
3 71 305 307 
3 66 72 306 
3 306 72 308 
3 71 307 75 
3 75 307 309 
3 72 76 308 
3 308 76 310 
3 75 309 79 
3 79 309 311 
3 76 80 310 
3 310 80 312 
3 79 311 83 
3 83 311 313 
3 303 310 299 
3 299 310 312 
3 304 301 311 
3 311 301 313 
3 308 310 306 
3 306 310 303 
3 309 307 311 
3 311 307 304 
3 312 314 299 
3 299 314 298 
3 313 301 315 
3 315 301 300 
3 80 84 312 
3 312 84 314 
3 83 313 87 
3 87 313 315 
3 316 205 317 
3 317 205 207 
3 319 318 206 
3 206 318 208 
3 314 84 316 
3 316 84 205 
3 315 319 87 
3 87 319 206 
3 207 88 317 
3 317 88 320 
3 208 318 94 
3 94 318 321 
3 320 88 294 
3 294 88 89 
3 321 295 94 
3 94 295 93 
3 323 322 324 
3 324 322 325 
3 327 326 322 
3 322 326 325 
3 324 325 328 
3 328 325 329 
3 326 330 325 
3 325 330 329 
3 328 329 331 
3 331 329 332 
3 330 333 329 
3 329 333 332 
3 331 332 298 
3 298 332 297 
3 333 300 332 
3 332 300 297 
3 298 314 331 
3 331 314 316 
3 300 333 315 
3 315 333 319 
3 292 290 334 
3 334 290 335 
3 293 336 291 
3 291 336 337 
3 339 338 323 
3 323 338 322 
3 340 327 338 
3 338 327 322 
3 342 341 343 
3 343 341 344 
3 346 345 341 
3 341 345 344 
3 343 344 347 
3 347 344 348 
3 345 349 344 
3 344 349 348 
3 347 348 339 
3 339 348 338 
3 349 340 348 
3 348 340 338 
3 288 286 350 
3 350 286 351 
3 289 352 287 
3 287 352 353 
3 350 351 354 
3 354 351 355 
3 352 356 353 
3 353 356 357 
3 354 355 358 
3 358 355 359 
3 356 360 357 
3 357 360 361 
3 358 359 362 
3 362 359 363 
3 360 364 361 
3 361 364 365 
3 367 366 363 
3 363 366 362 
3 368 365 369 
3 369 365 364 
3 347 339 363 
3 363 339 367 
3 349 365 340 
3 340 365 368 
3 343 347 359 
3 359 347 363 
3 345 361 349 
3 349 361 365 
3 342 343 355 
3 355 343 359 
3 346 357 345 
3 345 357 361 
3 370 342 351 
3 351 342 355 
3 371 353 346 
3 346 353 357 
3 286 284 351 
3 351 284 370 
3 287 353 285 
3 285 353 371 
3 370 372 342 
3 342 372 341 
3 371 346 372 
3 372 346 341 
3 280 277 282 
3 282 277 284 
3 281 283 279 
3 279 283 285 
3 284 277 370 
3 370 277 372 
3 285 371 279 
3 279 371 372 
3 277 278 372 
3 279 372 278 
3 290 288 335 
3 335 288 350 
3 291 337 289 
3 289 337 352 
3 373 335 354 
3 354 335 350 
3 374 356 337 
3 337 356 352 
3 375 373 358 
3 358 373 354 
3 376 360 374 
3 374 360 356 
3 362 366 358 
3 358 366 375 
3 364 360 369 
3 369 360 376 
3 328 331 377 
3 377 331 378 
3 330 379 333 
3 333 379 380 
3 378 334 377 
3 377 334 381 
3 380 379 336 
3 336 379 382 
3 294 292 378 
3 378 292 334 
3 295 380 293 
3 293 380 336 
3 317 294 316 
3 316 294 378 
3 318 319 295 
3 295 319 380 
3 331 316 378 
3 333 380 319 
3 320 294 317 
3 321 318 295 
3 383 366 384 
3 384 366 367 
3 386 385 369 
3 369 385 368 
3 367 339 384 
3 384 339 323 
3 368 385 340 
3 340 385 327 
3 377 381 384 
3 384 381 383 
3 379 385 382 
3 382 385 386 
3 324 328 384 
3 384 328 377 
3 326 385 330 
3 330 385 379 
3 384 323 324 
3 385 326 327 
3 388 387 389 
3 389 387 390 
3 392 391 393 
3 393 391 394 
3 390 387 395 
3 395 387 396 
3 394 397 393 
3 393 397 398 
3 395 396 399 
3 399 396 400 
3 397 401 398 
3 398 401 402 
3 399 400 403 
3 403 400 404 
3 401 405 402 
3 402 405 406 
3 403 404 407 
3 407 404 408 
3 405 409 406 
3 406 409 410 
3 407 408 411 
3 411 408 412 
3 409 413 410 
3 410 413 414 
3 415 407 416 
3 416 407 411 
3 418 417 409 
3 409 417 413 
3 419 403 415 
3 415 403 407 
3 420 418 405 
3 405 418 409 
3 421 399 419 
3 419 399 403 
3 422 420 401 
3 401 420 405 
3 423 395 421 
3 421 395 399 
3 424 422 397 
3 397 422 401 
3 425 390 423 
3 423 390 395 
3 426 424 394 
3 394 424 397 
3 389 390 427 
3 427 390 425 
3 391 428 394 
3 394 428 426 
3 381 334 429 
3 429 334 430 
3 382 431 336 
3 336 431 432 
3 412 381 411 
3 411 381 429 
3 414 413 382 
3 382 413 431 
3 334 335 430 
3 430 335 373 
3 336 432 337 
3 337 432 374 
3 433 375 389 
3 389 375 388 
3 434 391 376 
3 376 391 392 
3 416 411 435 
3 435 411 429 
3 417 436 413 
3 413 436 431 
3 438 437 429 
3 429 437 435 
3 439 431 440 
3 440 431 436 
3 438 441 437 
3 437 441 442 
3 439 440 443 
3 443 440 444 
3 446 445 438 
3 438 445 441 
3 447 439 448 
3 448 439 443 
3 446 433 445 
3 445 433 449 
3 447 448 434 
3 434 448 450 
3 433 389 449 
3 449 389 427 
3 434 450 391 
3 391 450 428 
3 446 373 433 
3 433 373 375 
3 447 434 374 
3 374 434 376 
3 430 373 438 
3 438 373 446 
3 432 439 374 
3 374 439 447 
3 429 430 438 
3 431 439 432 
3 449 427 451 
3 451 427 452 
3 450 453 428 
3 428 453 454 
3 445 449 455 
3 455 449 451 
3 448 456 450 
3 450 456 453 
3 441 445 457 
3 457 445 455 
3 443 458 448 
3 448 458 456 
3 442 441 459 
3 459 441 457 
3 444 460 443 
3 443 460 458 
3 437 442 461 
3 461 442 459 
3 440 462 444 
3 444 462 460 
3 435 437 463 
3 463 437 461 
3 436 464 440 
3 440 464 462 
3 416 435 465 
3 465 435 463 
3 417 466 436 
3 436 466 464 
3 427 425 452 
3 452 425 467 
3 428 454 426 
3 426 454 468 
3 425 423 467 
3 467 423 469 
3 426 468 424 
3 424 468 470 
3 423 421 469 
3 469 421 471 
3 424 470 422 
3 422 470 472 
3 421 419 471 
3 471 419 473 
3 422 472 420 
3 420 472 474 
3 419 415 473 
3 473 415 475 
3 420 474 418 
3 418 474 476 
3 415 416 475 
3 475 416 465 
3 418 476 417 
3 417 476 466 
3 461 459 477 
3 477 459 478 
3 462 479 460 
3 460 479 480 
3 477 478 481 
3 481 478 482 
3 479 483 480 
3 480 483 484 
3 481 482 485 
3 485 482 486 
3 483 487 484 
3 484 487 488 
3 485 486 489 
3 489 486 490 
3 487 491 488 
3 488 491 492 
3 452 467 486 
3 486 467 490 
3 454 488 468 
3 468 488 492 
3 482 451 486 
3 486 451 452 
3 484 488 453 
3 453 488 454 
3 455 451 478 
3 478 451 482 
3 456 480 453 
3 453 480 484 
3 478 459 455 
3 455 459 457 
3 480 456 460 
3 460 456 458 
3 465 463 477 
3 477 463 461 
3 466 479 464 
3 464 479 462 
3 481 475 477 
3 477 475 465 
3 483 479 476 
3 476 479 466 
3 485 473 481 
3 481 473 475 
3 487 483 474 
3 474 483 476 
3 489 471 485 
3 485 471 473 
3 491 487 472 
3 472 487 474 
3 490 469 489 
3 489 469 471 
3 492 491 470 
3 470 491 472 
3 490 467 469 
3 492 470 468 
3 412 408 493 
3 493 408 494 
3 414 495 410 
3 410 495 496 
3 408 404 494 
3 494 404 497 
3 410 496 406 
3 406 496 498 
3 404 400 497 
3 497 400 499 
3 406 498 402 
3 402 498 500 
3 400 396 499 
3 499 396 501 
3 402 500 398 
3 398 500 502 
3 396 387 501 
3 501 387 503 
3 398 502 393 
3 393 502 504 
3 387 388 503 
3 503 388 505 
3 393 504 392 
3 392 504 506 
3 494 503 493 
3 493 503 505 
3 496 495 504 
3 504 495 506 
3 501 503 497 
3 497 503 494 
3 502 498 504 
3 504 498 496 
3 499 501 497 
3 500 498 502 
3 375 366 388 
3 388 366 505 
3 376 392 369 
3 369 392 506 
3 505 366 493 
3 493 366 383 
3 506 495 369 
3 369 495 386 
3 383 381 493 
3 493 381 412 
3 386 495 382 
3 382 495 414 
